<svg width="24" height="24" viewBox="0 0 24 24" fill="none" xmlns="http://www.w3.org/2000/svg">
<path d="M13.3147 12.071L8.3647 7.12098C8.18254 6.93238 8.08174 6.67978 8.08402 6.41758C8.0863 6.15538 8.19147 5.90457 8.37688 5.71916C8.56229 5.53375 8.8131 5.42859 9.0753 5.42631C9.33749 5.42403 9.59009 5.52482 9.7787 5.70698L15.4357 11.364C15.6232 11.5515 15.7285 11.8058 15.7285 12.071C15.7285 12.3361 15.6232 12.5905 15.4357 12.778L9.7787 18.435C9.59009 18.6171 9.33749 18.7179 9.0753 18.7157C8.8131 18.7134 8.56229 18.6082 8.37688 18.4228C8.19147 18.2374 8.0863 17.9866 8.08402 17.7244C8.08174 17.4622 8.18254 17.2096 8.3647 17.021L13.3147 12.071Z" fill="#938E8E"/>
</svg>
