<svg width="9" height="14" viewBox="0 0 9 14" fill="none" xmlns="http://www.w3.org/2000/svg">
<path d="M2.75754 7.00018L7.70754 11.9502C7.80305 12.0424 7.87923 12.1528 7.93164 12.2748C7.98405 12.3968 8.01163 12.528 8.01279 12.6608C8.01394 12.7936 7.98864 12.9252 7.93836 13.0481C7.88808 13.171 7.81382 13.2827 7.71993 13.3766C7.62604 13.4705 7.51439 13.5447 7.39149 13.595C7.26859 13.6453 7.13691 13.6706 7.00414 13.6694C6.87136 13.6683 6.74014 13.6407 6.61813 13.5883C6.49613 13.5359 6.38578 13.4597 6.29354 13.3642L0.636536 7.70718C0.449065 7.51965 0.34375 7.26535 0.34375 7.00018C0.34375 6.73502 0.449065 6.48071 0.636536 6.29318L6.29354 0.636181C6.48214 0.454022 6.73474 0.353228 6.99694 0.355507C7.25913 0.357785 7.50995 0.462954 7.69535 0.648362C7.88076 0.83377 7.98593 1.08458 7.98821 1.34678C7.99049 1.60898 7.88969 1.86158 7.70754 2.05018L2.75754 7.00018Z" fill="#938E8E"/>
</svg>
